<svg id="Layer_1" data-name="Layer 1" xmlns="http://www.w3.org/2000/svg" viewBox="0 0 1061 316"><defs><style>.cls-1{fill:#2483c5;}.cls-2{fill:none;}</style></defs><rect class="cls-1" x="34.51" y="287.74" width="90.52" height="6.27"/><polygon class="cls-1" points="34.51 277.42 34.51 267.69 124.3 267.69 124.68 277.42 34.51 277.42"/><polygon class="cls-1" points="34.51 257.21 34.51 243.83 123.68 243.83 123.96 257.21 34.51 257.21"/><polygon class="cls-1" points="34.51 233.32 34.51 213.92 122.76 213.92 123.2 233.32 34.51 233.32"/><polygon class="cls-1" points="34.51 203.74 34.51 173.74 291.55 173.74 293.44 203.74 137.89 203.74 120.16 173.75 122.32 203.74 34.51 203.74"/><polygon class="cls-1" points="34.51 163.37 34.51 126.24 188.01 126.24 210.75 163.37 208.62 126.24 293.44 126.24 293.44 163.37 34.51 163.37"/><polygon class="cls-1" points="34.51 115.82 34.51 43.38 138.34 43.68 181.32 115.82 34.51 115.82"/><rect class="cls-1" x="208.61" y="43.38" width="84.82" height="72.44"/><polygon class="cls-1" points="293.44 213.92 293.44 233.32 157.73 233.32 144.86 213.92 293.44 213.92"/><polygon class="cls-1" points="293.44 243.83 293.44 257.21 173.24 257.21 164.43 243.83 293.44 243.83"/><polygon class="cls-1" points="293.44 267.69 293.44 277.42 186.54 277.42 180.16 267.69 293.44 267.69"/><polygon class="cls-1" points="293.44 287.75 293.44 294.02 197.58 294.02 193.41 287.75 293.44 287.75"/><rect class="cls-1" x="317.63" y="287.74" width="88.57" height="6.27"/><rect class="cls-1" x="317.63" y="267.68" width="88.57" height="9.73"/><rect class="cls-1" x="317.63" y="243.83" width="88.57" height="13.38"/><rect class="cls-1" x="317.63" y="213.92" width="88.57" height="19.37"/><rect class="cls-1" x="317.63" y="173.74" width="88.57" height="30.01"/><rect class="cls-1" x="317.63" y="126.24" width="88.57" height="37.13"/><rect class="cls-1" x="317.63" y="43.38" width="88.57" height="72.44"/><path class="cls-1" d="M558.48,39.1h47v76.72H434.32c21.19-45,68.88-76.72,124.16-76.72"/><path class="cls-1" d="M529.48,126.24a49.51,49.51,0,0,0-17.66,37.13H422.59A128.07,128.07,0,0,1,430,126.24Z"/><path class="cls-1" d="M512.61,173.74a50.11,50.11,0,0,0,17.64,30H427.86a120.56,120.56,0,0,1-5-30Z"/><path class="cls-1" d="M605.48,213.92v19.4H441.1a122.88,122.88,0,0,1-9.71-19.4Z"/><path class="cls-1" d="M605.48,243.83v13.38H460a126.17,126.17,0,0,1-11.71-13.38Z"/><path class="cls-1" d="M605.48,267.69v9.73H485.58a158.48,158.48,0,0,1-14-9.73Z"/><path class="cls-1" d="M605.48,287.75v5.4H525.29s-2.67.92-18.58-5.4Z"/><polygon class="cls-1" points="651.13 112.46 662.97 112.46 684.42 149.8 684.42 112.46 694.94 112.46 694.94 166 683.65 166 661.65 128.01 661.65 166 651.13 166 651.13 112.46"/><path class="cls-1" d="M719.77,141.92a16.53,16.53,0,0,0,4.17-.91,3.11,3.11,0,0,0,2.26-2.94,3.48,3.48,0,0,0-1.73-3.36,11,11,0,0,0-5.08-.93c-2.49,0-4.27.61-5.31,1.81a7.39,7.39,0,0,0-1.48,3.64H702.51a15,15,0,0,1,3-8.53q4.15-5.25,14.29-5.24a25.63,25.63,0,0,1,11.7,2.59q5.13,2.56,5.12,9.73v18.16c0,1.27,0,2.79.08,4.58a5.67,5.67,0,0,0,.62,2.77,3.75,3.75,0,0,0,1.54,1.19V166H727.45a11.08,11.08,0,0,1-.67-2.25c-.12-.7-.21-1.5-.29-2.39a21.53,21.53,0,0,1-5,3.95,15.24,15.24,0,0,1-7.68,1.93,13.27,13.27,0,0,1-9-3.07c-2.37-2-3.57-4.95-3.57-8.7,0-4.86,1.92-8.39,5.73-10.57a25.72,25.72,0,0,1,9.24-2.55Zm6.39,4.83a10.61,10.61,0,0,1-2,1,16.71,16.71,0,0,1-2.8.71l-2.38.44a16,16,0,0,0-4.8,1.41,4.7,4.7,0,0,0-2.47,4.4,4.57,4.57,0,0,0,1.51,3.83,5.74,5.74,0,0,0,3.66,1.18,10.93,10.93,0,0,0,6.31-2c1.93-1.31,2.92-3.69,3-7.15Z"/><path class="cls-1" d="M740.85,134.14v-7.37h5.57v-11h10.34v11h6.49v7.37h-6.49v20.92c0,1.63.2,2.65.63,3s1.68.6,3.8.6h1c.35,0,.7,0,1-.06v7.74l-5,.18c-4.94.16-8.31-.67-10.13-2.54-1.17-1.19-1.75-3-1.75-5.49V134.14Z"/><path class="cls-1" d="M781.25,121.68H770.64v-9.55h10.61Zm-10.61,4.73h10.61V166H770.64Z"/><path class="cls-1" d="M822.65,161.17q-5.05,6.17-15.36,6.17t-15.37-6.17a24.39,24.39,0,0,1,0-29.75q5.05-6.28,15.37-6.28t15.36,6.28a24.43,24.43,0,0,1,0,29.75m-8.36-5.73q2.44-3.23,2.45-9.18t-2.45-9.16a9.35,9.35,0,0,0-14.1,0q-2.48,3.21-2.47,9.16t2.47,9.18a9.31,9.31,0,0,0,14.1,0"/><path class="cls-1" d="M866.66,128.68q3.93,3.21,3.93,10.66V166H859.87V141.92a11.17,11.17,0,0,0-.82-4.8c-1-2-3-3.05-5.84-3.05q-5.26,0-7.23,4.47a15.31,15.31,0,0,0-1,6V166H834.5V126.48h10.13v5.77a17.59,17.59,0,0,1,3.8-4.39,13.28,13.28,0,0,1,8.14-2.4,15.36,15.36,0,0,1,10.09,3.22"/><path class="cls-1" d="M895.38,141.92a16.53,16.53,0,0,0,4.17-.91,3.11,3.11,0,0,0,2.26-2.94,3.48,3.48,0,0,0-1.73-3.36,11,11,0,0,0-5.07-.93c-2.5,0-4.28.61-5.32,1.81a7.48,7.48,0,0,0-1.48,3.64H878.12a15.12,15.12,0,0,1,3-8.53q4.17-5.25,14.29-5.24a25.57,25.57,0,0,1,11.7,2.59q5.13,2.56,5.13,9.73v18.16c0,1.27,0,2.79.07,4.58a5.79,5.79,0,0,0,.62,2.77,3.82,3.82,0,0,0,1.54,1.19V166H903.06a11.08,11.08,0,0,1-.67-2.25c-.12-.7-.21-1.5-.29-2.39a21.53,21.53,0,0,1-5,3.95,15.2,15.2,0,0,1-7.67,1.93,13.28,13.28,0,0,1-9-3.07q-3.55-3.07-3.56-8.7,0-7.29,5.72-10.57a25.72,25.72,0,0,1,9.24-2.55Zm6.39,4.83a10.61,10.61,0,0,1-2,1,16.45,16.45,0,0,1-2.8.71l-2.38.44a16.1,16.1,0,0,0-4.8,1.41,4.71,4.71,0,0,0-2.46,4.4,4.56,4.56,0,0,0,1.5,3.83,5.74,5.74,0,0,0,3.66,1.18,11,11,0,0,0,6.32-2c1.92-1.31,2.91-3.69,3-7.15Z"/><rect class="cls-1" x="920.78" y="112.46" width="10.46" height="53.55"/><rect class="cls-1" x="650.4" y="175.27" width="11.21" height="53.54"/><path class="cls-1" d="M702.81,191.49q3.91,3.21,3.92,10.66v26.66H696V204.73a11.07,11.07,0,0,0-.83-4.79c-1-2-3-3.06-5.83-3.06-3.52,0-5.93,1.5-7.25,4.48a15.46,15.46,0,0,0-1,6v21.43H670.65V189.29h10.12v5.78a17.67,17.67,0,0,1,3.8-4.4,13.2,13.2,0,0,1,8.13-2.39,15.41,15.41,0,0,1,10.11,3.21"/><path class="cls-1" d="M732.23,174.78l2.2.16v8.43c-.59-.07-1.57-.13-2.95-.17a3.44,3.44,0,0,0-2.86.92,3.3,3.3,0,0,0-.79,2.12v3.34h6.86v7.31h-6.86v31.92H717.46V196.89h-5.87v-7.31h5.71V187c0-4.24.73-7.16,2.17-8.76q2.26-3.56,11-3.55c.66,0,1.27,0,1.8.05"/><path class="cls-1" d="M773.28,224q-5.07,6.19-15.36,6.19c-6.88,0-12-2.06-15.37-6.19a24.38,24.38,0,0,1,0-29.74C745.93,190,751,188,757.92,188s12,2.09,15.36,6.28a24.42,24.42,0,0,1,0,29.74m-8.36-5.72q2.45-3.23,2.45-9.18t-2.45-9.16a9.35,9.35,0,0,0-14.1,0q-2.48,3.22-2.48,9.16t2.48,9.18a9.31,9.31,0,0,0,14.1,0"/><path class="cls-1" d="M807.27,188.29c.13,0,.43,0,.9.06V199c-.66-.06-1.25-.12-1.76-.14l-1.25,0q-6.31,0-8.47,4.07-1.22,2.29-1.21,7v18.92H785v-39.6h10v6.92a21.93,21.93,0,0,1,4.21-5.42,11.53,11.53,0,0,1,7.64-2.43h.49"/><path class="cls-1" d="M863.41,189.37a11.52,11.52,0,0,1,4.65,3.56,11.38,11.38,0,0,1,2.27,5.09,34.25,34.25,0,0,1,.36,5.83l-.07,25H859.91V203.6a8.08,8.08,0,0,0-.73-3.7q-1.39-2.76-5.13-2.76a6,6,0,0,0-6,3.56,11,11,0,0,0-.84,4.54v23.57H836.71V205.24a13.05,13.05,0,0,0-.74-5.12c-.87-1.92-2.6-2.87-5.17-2.87-3,0-5,.95-6,2.87A10.82,10.82,0,0,0,824,205v23.83h-10.6V189.29H823.5v5.78a17.14,17.14,0,0,1,3.67-4.4,14.68,14.68,0,0,1,15.3-.33,11.73,11.73,0,0,1,3.44,4.76A13.33,13.33,0,0,1,851,190a15.76,15.76,0,0,1,7.18-1.63,14.13,14.13,0,0,1,5.22,1"/><path class="cls-1" d="M895.38,204.74a16.89,16.89,0,0,0,4.17-.92,3.11,3.11,0,0,0,2.26-2.94,3.47,3.47,0,0,0-1.73-3.36,11.13,11.13,0,0,0-5.07-.92c-2.5,0-4.28.6-5.32,1.81a7.4,7.4,0,0,0-1.48,3.63H878.12a15.12,15.12,0,0,1,3-8.53q4.17-5.23,14.29-5.23a25.57,25.57,0,0,1,11.7,2.57q5.13,2.58,5.13,9.74v18.17c0,1.26,0,2.77.07,4.56a5.77,5.77,0,0,0,.62,2.78,3.84,3.84,0,0,0,1.54,1.2v1.51H903.06a10.89,10.89,0,0,1-.67-2.25c-.12-.7-.21-1.5-.29-2.39a21.53,21.53,0,0,1-5,4,15.2,15.2,0,0,1-7.67,1.93,13.32,13.32,0,0,1-9-3.06c-2.37-2.06-3.56-5-3.56-8.71q0-7.31,5.72-10.57a25.75,25.75,0,0,1,9.24-2.54Zm6.39,4.82a11.23,11.23,0,0,1-2,1,18.43,18.43,0,0,1-2.8.72l-2.38.43a15.76,15.76,0,0,0-4.8,1.42,4.68,4.68,0,0,0-2.46,4.39,4.54,4.54,0,0,0,1.5,3.83,5.74,5.74,0,0,0,3.66,1.18,11,11,0,0,0,6.32-2c1.92-1.31,2.91-3.69,3-7.16Z"/><path class="cls-1" d="M916.46,197v-7.38H922V178.53h10.34v11.05h6.48V197h-6.48v20.92c0,1.63.2,2.63.62,3s1.69.6,3.81.6c.32,0,.65,0,1,0s.7,0,1-.05v7.74l-4.94.18c-4.95.18-8.31-.68-10.12-2.54-1.18-1.18-1.76-3-1.76-5.49V197Z"/><path class="cls-1" d="M956.86,184.5H946.25v-9.56h10.61Zm-10.61,4.72h10.61v39.59H946.25Z"/><path class="cls-1" d="M988.84,203.43a9,9,0,0,0-1.52-4c-1.17-1.61-3-2.4-5.47-2.4q-5.29,0-7.24,5.19a21.29,21.29,0,0,0-1,7.31,19.65,19.65,0,0,0,1,7,7,7,0,0,0,7.06,4.94c2.44,0,4.18-.66,5.21-2a9.72,9.72,0,0,0,1.88-5.08h10.67a17.19,17.19,0,0,1-3.46,8.93c-3.27,4.53-8.14,6.79-14.56,6.79s-11.17-1.89-14.2-5.66-4.55-8.68-4.55-14.7q0-10.2,5-15.85t13.87-5.67q7.53,0,12.32,3.34c3.19,2.22,5.08,6.17,5.67,11.81Z"/><path class="cls-1" d="M1014,216.18a6.93,6.93,0,0,0,1.44,3.92q1.95,2.07,7.22,2.07a11.22,11.22,0,0,0,4.92-.91,3,3,0,0,0,.35-5.37q-1.46-.93-10.93-3.13-6.81-1.68-9.6-4.17c-1.86-1.66-2.79-4-2.79-7.13A12.33,12.33,0,0,1,1009,192q4.35-3.94,12.26-3.94c5,0,9.07,1,12.21,3s5,5.39,5.41,10.22h-10.44a6,6,0,0,0-1.14-3.15q-1.72-2.12-5.89-2.11-3.4,0-4.86,1.05a3,3,0,0,0-1.45,2.48,2.68,2.68,0,0,0,1.54,2.57q1.54.84,10.91,2.87,6.24,1.46,9.36,4.4a10,10,0,0,1,3.08,7.45,12,12,0,0,1-4.43,9.61c-3,2.48-7.5,3.72-13.69,3.72s-10.94-1.31-13.93-3.94a12.76,12.76,0,0,1-4.49-10Z"/><path class="cls-1" d="M656.48,246q6.51-6.6,16.6-6.61,13.5,0,19.73,8.86a19.22,19.22,0,0,1,3.71,10H685.23a15.07,15.07,0,0,0-2.77-5.8q-3-3.5-9-3.5a11,11,0,0,0-9.51,4.92q-3.48,4.94-3.49,13.94t3.68,13.49a11.57,11.57,0,0,0,9.34,4.49q5.82,0,8.86-3.85a16.94,16.94,0,0,0,2.8-6.21H696.4A23.93,23.93,0,0,1,689,289.91q-6,5.5-15.3,5.49-11.52,0-18.13-7.41T649,267.57q0-14,7.52-21.61"/><path class="cls-1" d="M730,255.12a16.11,16.11,0,0,1,6.91,5.86,19.22,19.22,0,0,1,3.18,8.18,50.31,50.31,0,0,1,.35,7.86H711.31q.26,6,4.18,8.36a10.71,10.71,0,0,0,5.76,1.48,8.81,8.81,0,0,0,5.8-1.81,8.57,8.57,0,0,0,2.15-2.73h10.67c-.28,2.36-1.57,4.74-3.87,7.16q-5.37,5.77-15,5.78a22,22,0,0,1-14.09-4.87q-6.09-4.87-6.09-15.86,0-10.29,5.5-15.78t14.29-5.49a23.06,23.06,0,0,1,9.4,1.86m-15.62,8.94a10.71,10.71,0,0,0-2.79,6.13h18a8.6,8.6,0,0,0-2.78-6.25,9.2,9.2,0,0,0-6.2-2.14,8.28,8.28,0,0,0-6.23,2.26"/><path class="cls-1" d="M777.18,256.58c2.62,2.16,3.93,5.7,3.93,10.67v26.66H770.4V269.83a11.11,11.11,0,0,0-.84-4.8c-1-2-3-3-5.82-3-3.52,0-5.93,1.49-7.25,4.47a15.46,15.46,0,0,0-1,6v21.43H745V254.39h10.12v5.78a17.5,17.5,0,0,1,3.8-4.4,13.23,13.23,0,0,1,8.14-2.39,15.43,15.43,0,0,1,10.1,3.2"/><path class="cls-1" d="M786,262.06v-7.38h5.57v-11h10.34v11h6.49v7.38h-6.49V283q0,2.43.63,3c.41.41,1.68.6,3.81.6h1l1-.06v7.74l-5,.18c-4.94.16-8.31-.68-10.12-2.55q-1.75-1.77-1.76-5.48V262.06Z"/><path class="cls-1" d="M836.52,253.39l.91.05v10.61c-.66-.07-1.26-.12-1.77-.14s-.92-.05-1.24-.05c-4.2,0-7,1.37-8.47,4.08-.81,1.53-1.21,3.87-1.21,7.05v18.92H814.22V254.32h10v6.89a21.48,21.48,0,0,1,4.23-5.4,11.5,11.5,0,0,1,7.62-2.43h.49"/><path class="cls-1" d="M868.84,255.12a16.08,16.08,0,0,1,6.9,5.86,19.23,19.23,0,0,1,3.19,8.18,50.56,50.56,0,0,1,.34,7.86h-29.1q.24,6,4.17,8.36a10.76,10.76,0,0,0,5.76,1.48,8.87,8.87,0,0,0,5.81-1.81,8.72,8.72,0,0,0,2.15-2.73h10.66c-.27,2.36-1.57,4.74-3.86,7.16-3.59,3.85-8.59,5.78-15,5.78a22,22,0,0,1-14.08-4.87q-6.09-4.87-6.1-15.86,0-10.29,5.51-15.78t14.29-5.49a23.09,23.09,0,0,1,9.4,1.86m-15.64,8.94a10.76,10.76,0,0,0-2.78,6.13h18a8.61,8.61,0,0,0-2.79-6.25,9.18,9.18,0,0,0-6.2-2.14,8.34,8.34,0,0,0-6.24,2.26"/><path class="cls-1" d="M885.19,94.24c-1.12-1.71-4-5.79-9.82-14-6.52-9.15-9.2-13.4-10.25-15.37l7.2-4.91A23.4,23.4,0,0,0,874,63.2a3.91,3.91,0,0,0,2.89,2.14h.26A1.93,1.93,0,0,0,879.07,64a5.29,5.29,0,0,0,.15-1.34v-11H869V43.57h23.87l-1.1-1.5c-.35-.48-.58-.83-.72-1a13.83,13.83,0,0,1-1.82-7.54,11.62,11.62,0,0,1,4.57-9.06c2.91-2.28,6.87-3.44,11.77-3.44,5.28,0,12.92,2.78,18.12,9a48.1,48.1,0,0,1,7.48,12.84V94H920.92V51.66H911V94H900.79V72.32h-4.38l-4.33-7.61,8.71.09V51.66H889.4V63.77a8.57,8.57,0,0,1-1.89,5.35,9.65,9.65,0,0,1-5.58,3.69l-1.38.36.92,1.14c1,1.25,2.38,2.93,4.06,5.1,2.31,2.55,4.8,5.56,7.45,9ZM904.5,28.68a11.11,11.11,0,0,0-1.64.12,6.2,6.2,0,0,0-4.33,2.59,7,7,0,0,0-1.07,4,7.42,7.42,0,0,0,4.8,7.24,11.5,11.5,0,0,0,3.76,1h10.72c4.25,0,4.25,0,4.25-1v-.13l0-.13c-1.82-6.47-9-13.68-16.45-13.68"/><path class="cls-2" d="M885.19,94.24c-1.12-1.71-4-5.79-9.82-14-6.52-9.15-9.2-13.4-10.25-15.37l7.2-4.91A23.4,23.4,0,0,0,874,63.2a3.91,3.91,0,0,0,2.89,2.14h.26A1.93,1.93,0,0,0,879.07,64a5.29,5.29,0,0,0,.15-1.34v-11H869V43.57h23.87l-1.1-1.5c-.35-.48-.58-.83-.72-1a13.83,13.83,0,0,1-1.82-7.54,11.62,11.62,0,0,1,4.57-9.06c2.91-2.28,6.87-3.44,11.77-3.44,5.28,0,12.92,2.78,18.12,9a48.1,48.1,0,0,1,7.48,12.84V94H920.92V51.66H911V94H900.79V72.32h-4.38l-4.33-7.61,8.71.09V51.66H889.4V63.77a8.57,8.57,0,0,1-1.89,5.35,9.65,9.65,0,0,1-5.58,3.69l-1.38.36.92,1.14c1,1.25,2.38,2.93,4.06,5.1,2.31,2.55,4.8,5.56,7.45,9ZM904.5,28.68a11.11,11.11,0,0,0-1.64.12,6.2,6.2,0,0,0-4.33,2.59,7,7,0,0,0-1.07,4,7.42,7.42,0,0,0,4.8,7.24,11.5,11.5,0,0,0,3.76,1h10.72c4.25,0,4.25,0,4.25-1v-.13l0-.13C919.13,35.89,911.93,28.68,904.5,28.68Z"/><path class="cls-1" d="M838,97.78c-1.29-1-2.74-2.36-4.27-3.86l-.24-.24h-.34c-.2,0-.53,0-.94,0-.11,0-.55,0-.55,0h-1.44a11.21,11.21,0,0,1-6.64-2.21,5.76,5.76,0,0,1-2.52-5,5.54,5.54,0,0,1,1.78-4.13,6.57,6.57,0,0,1,4.73-1.66,8.24,8.24,0,0,1,2.94.56,14.46,14.46,0,0,1,6.39,5.48,1.07,1.07,0,0,0,.91.45,4.21,4.21,0,0,0,1.54-.4l.41-.16a8,8,0,0,0,3.12-2.34,7.85,7.85,0,0,0,1.55-6.58,2.69,2.69,0,0,0-.53-1.16,1.64,1.64,0,0,0-1.3-.58,2.6,2.6,0,0,0-.68.1,13.64,13.64,0,0,0-2.25.81c-.53.22-1.07.45-1.63.62a8.55,8.55,0,0,1-2.55.37,10.91,10.91,0,0,1-4.14-.85A15.81,15.81,0,0,1,825.75,73c-3.44-3.84-5.11-7.12-5.11-10a5.2,5.2,0,0,1,1.94-4.11,6.08,6.08,0,0,1,4.18-1.56h14.39V51.65H812V94H801.73V51.65h-9.58V94H781.89V74.56l-1.18.46a3.8,3.8,0,0,1-1.49.28,5.67,5.67,0,0,1-1.25-.15l-1.13-.24.09,1.22c.37,5-.84,8.86-3.59,11.44-2.53,2.32-6.22,3.49-11,3.49-3.94,0-7.86-1.71-11.66-5.09a39.67,39.67,0,0,1-10.39-15.39l7.47-3.13c.51,1,1,2,1.46,3a48.17,48.17,0,0,0,2.92,5.48c1.59,2.5,4.34,5.66,8.38,6.6a7.88,7.88,0,0,0,1.79.21A5.37,5.37,0,0,0,766,81.46c2-1.81,2.17-5.31,1.17-7.51-1.26-2.84-4.3-3.56-6-3.75h-.38c-.47,0-1.35,0-2.19.06l-1.61.07c-.52-1.16-1.8-4-2.52-5.55,1.34-.37,3.38-1.11,4.71-1.6a7.27,7.27,0,0,0,3.79-2.73,6.05,6.05,0,0,0,.89-3.26,4.31,4.31,0,0,0-.7-2.61,4,4,0,0,0-3.37-1.6,9,9,0,0,0-5.49,2.15,20.24,20.24,0,0,0-3.08,3C749,53.26,748,50.92,747.4,49.8a7.17,7.17,0,0,1,.89-.78A19.36,19.36,0,0,1,760,45a14.42,14.42,0,0,1,9.69,3.29,10.19,10.19,0,0,1,3.75,8.15,10.4,10.4,0,0,1-2.68,7.45l-.92,1,1.21.52a16.1,16.1,0,0,1,1.67.94c1.3.81,2.78,1.72,4.2,1.72h.25s4.73-.54,4.73-2.11V43.55h45.22v0h1.51c2.52,0,5.07,0,7.63,0l5,0,2.11,0L841.89,42c-1.59-1.71-4.23-4.63-4.62-5.22a10.31,10.31,0,0,1-1.53-5.87,10.91,10.91,0,0,1,7.44-9.52,18,18,0,0,1,4.88-.74,10,10,0,0,1,4.15.8c3,1.41,3.3,2.31,2.77,7.26l-.34-.12c-.65-.24-1.24-.43-1.81-.6a13.76,13.76,0,0,0-3.66-.6,6,6,0,0,0-3,.67,5.35,5.35,0,0,0-2.65,4A5.92,5.92,0,0,0,845,37a16,16,0,0,1,1,1.25c.39.49.79,1,1.09,1.31.8.87,1.5,1.51,2.21,2.19.43.39.86.8,1.35,1.28v9.58l0,11.37-19.87-.05.79,1.4c.15.27,1.46,2.58,2,3.21l.32.39a7,7,0,0,0,3.39,2.73,4.17,4.17,0,0,0,1.19.17,9.54,9.54,0,0,0,3.33-.83l.56-.21a17.94,17.94,0,0,1,6.15-1.08,7.54,7.54,0,0,1,3.8.79c2.41,1.37,2.69,4.58,2.67,7.23-.06,5.77-2.87,10.07-8.61,13.14-.43.25-.75.43-1.08.59l-1.51.71,1.4.93c1.9,1.25,8.53,5,9.17,5.35l-.19.24-5.66,6.46Z"/><path class="cls-2" d="M838,97.78c-1.29-1-2.74-2.36-4.27-3.86l-.24-.24h-.34c-.2,0-.53,0-.94,0-.11,0-.55,0-.55,0h-1.44a11.21,11.21,0,0,1-6.64-2.21,5.76,5.76,0,0,1-2.52-5,5.54,5.54,0,0,1,1.78-4.13,6.57,6.57,0,0,1,4.73-1.66,8.24,8.24,0,0,1,2.94.56,14.46,14.46,0,0,1,6.39,5.48,1.07,1.07,0,0,0,.91.45,4.21,4.21,0,0,0,1.54-.4l.41-.16a8,8,0,0,0,3.12-2.34,7.85,7.85,0,0,0,1.55-6.58,2.69,2.69,0,0,0-.53-1.16,1.64,1.64,0,0,0-1.3-.58,2.6,2.6,0,0,0-.68.1,13.64,13.64,0,0,0-2.25.81c-.53.22-1.07.45-1.63.62a8.55,8.55,0,0,1-2.55.37,10.91,10.91,0,0,1-4.14-.85A15.81,15.81,0,0,1,825.75,73c-3.44-3.84-5.11-7.12-5.11-10a5.2,5.2,0,0,1,1.94-4.11,6.08,6.08,0,0,1,4.18-1.56h14.39V51.65H812V94H801.73V51.65h-9.58V94H781.89V74.56l-1.18.46a3.8,3.8,0,0,1-1.49.28,5.67,5.67,0,0,1-1.25-.15l-1.13-.24.09,1.22c.37,5-.84,8.86-3.59,11.44-2.53,2.32-6.22,3.49-11,3.49-3.94,0-7.86-1.71-11.66-5.09a39.67,39.67,0,0,1-10.39-15.39l7.47-3.13c.51,1,1,2,1.46,3a48.17,48.17,0,0,0,2.92,5.48c1.59,2.5,4.34,5.66,8.38,6.6a7.88,7.88,0,0,0,1.79.21A5.37,5.37,0,0,0,766,81.46c2-1.81,2.17-5.31,1.17-7.51-1.26-2.84-4.3-3.56-6-3.75h-.38c-.47,0-1.35,0-2.19.06l-1.61.07c-.52-1.16-1.8-4-2.52-5.55,1.34-.37,3.38-1.11,4.71-1.6a7.27,7.27,0,0,0,3.79-2.73,6.05,6.05,0,0,0,.89-3.26,4.31,4.31,0,0,0-.7-2.61,4,4,0,0,0-3.37-1.6,9,9,0,0,0-5.49,2.15,20.24,20.24,0,0,0-3.08,3C749,53.26,748,50.92,747.4,49.8a7.17,7.17,0,0,1,.89-.78A19.36,19.36,0,0,1,760,45a14.42,14.42,0,0,1,9.69,3.29,10.19,10.19,0,0,1,3.75,8.15,10.4,10.4,0,0,1-2.68,7.45l-.92,1,1.21.52a16.1,16.1,0,0,1,1.67.94c1.3.81,2.78,1.72,4.2,1.72h.25s4.73-.54,4.73-2.11V43.55h45.22v0h1.51c2.52,0,5.07,0,7.63,0l5,0,2.11,0L841.89,42c-1.59-1.71-4.23-4.63-4.62-5.22a10.31,10.31,0,0,1-1.53-5.87,10.91,10.91,0,0,1,7.44-9.52,18,18,0,0,1,4.88-.74,10,10,0,0,1,4.15.8c3,1.41,3.3,2.31,2.77,7.26l-.34-.12c-.65-.24-1.24-.43-1.81-.6a13.76,13.76,0,0,0-3.66-.6,6,6,0,0,0-3,.67,5.35,5.35,0,0,0-2.65,4A5.92,5.92,0,0,0,845,37a16,16,0,0,1,1,1.25c.39.49.79,1,1.09,1.31.8.87,1.5,1.51,2.21,2.19.43.39.86.8,1.35,1.28v9.58l0,11.37-19.87-.05.79,1.4c.15.27,1.46,2.58,2,3.21l.32.39a7,7,0,0,0,3.39,2.73,4.17,4.17,0,0,0,1.19.17,9.54,9.54,0,0,0,3.33-.83l.56-.21a17.94,17.94,0,0,1,6.15-1.08,7.54,7.54,0,0,1,3.8.79c2.41,1.37,2.69,4.58,2.67,7.23-.06,5.77-2.87,10.07-8.61,13.14-.43.25-.75.43-1.08.59l-1.51.71,1.4.93c1.9,1.25,8.53,5,9.17,5.35l-.19.24-5.66,6.46Z"/><path class="cls-1" d="M676.68,104.74a3.44,3.44,0,0,1-.86-.1c-1.4-.35-2.31-1.73-3.19-3.06-.18-.28-.36-.56-.54-.81l-1.18-1.68c.31,0,.63,0,1,0a6,6,0,0,0,1.87-.27A3,3,0,0,0,675,98a2.08,2.08,0,0,0,.44-2,2.57,2.57,0,0,0-1.07-1.31l-.18-.14c-.65-.52-1.29-1.05-1.93-1.58L652,76.32V43.59l32.13,0h44.93V94H718.82v-24H706.39V75.2a4.7,4.7,0,0,1-.55,2.15,2.67,2.67,0,0,1-2.69,1.74H703c-.76,0-2.65-.82-7-5.91-4.49-5.28-5-7.1-5-7.64,0-2.84,1.34-4.1,4.34-4.1h23.46V51.66h-34.5V68.32a6.47,6.47,0,0,1-2.42,5.22,10.06,10.06,0,0,1-6.63,2.58l-7.83-6.54c3.87-.11,5.12-.49,5.72-.79a1.76,1.76,0,0,0,.88-1.91V51.66H662.19V74.07L668,78.91l10.1,8.43,3.85,3.22A8.07,8.07,0,0,1,685.2,96a6.48,6.48,0,0,1-1.07,4.5,9,9,0,0,1-2.43,2.28,9.74,9.74,0,0,1-5,1.94"/><path class="cls-2" d="M676.68,104.74a3.44,3.44,0,0,1-.86-.1c-1.4-.35-2.31-1.73-3.19-3.06-.18-.28-.36-.56-.54-.81l-1.18-1.68c.31,0,.63,0,1,0a6,6,0,0,0,1.87-.27A3,3,0,0,0,675,98a2.08,2.08,0,0,0,.44-2,2.57,2.57,0,0,0-1.07-1.31l-.18-.14c-.65-.52-1.29-1.05-1.93-1.58L652,76.32V43.59l32.13,0h44.93V94H718.82v-24H706.39V75.2a4.7,4.7,0,0,1-.55,2.15,2.67,2.67,0,0,1-2.69,1.74H703c-.76,0-2.65-.82-7-5.91-4.49-5.28-5-7.1-5-7.64,0-2.84,1.34-4.1,4.34-4.1h23.46V51.66h-34.5V68.32a6.47,6.47,0,0,1-2.42,5.22,10.06,10.06,0,0,1-6.63,2.58l-7.83-6.54c3.87-.11,5.12-.49,5.72-.79a1.76,1.76,0,0,0,.88-1.91V51.66H662.19V74.07L668,78.91l10.1,8.43,3.85,3.22A8.07,8.07,0,0,1,685.2,96a6.48,6.48,0,0,1-1.07,4.5,9,9,0,0,1-2.43,2.28A9.74,9.74,0,0,1,676.68,104.74Z"/><polyline class="cls-1" points="785.18 51.66 775.91 51.66 775.91 43.57 798.84 43.57"/><polyline class="cls-2" points="785.18 51.66 775.91 51.66 775.91 43.57 798.84 43.57"/><polyline class="cls-1" points="711.97 43.57 734.89 43.57 734.89 51.65 725.62 51.65"/><polyline class="cls-2" points="711.97 43.57 734.89 43.57 734.89 51.65 725.62 51.65"/><polyline class="cls-1" points="832.96 43.57 855.89 43.57 855.89 51.65 846.62 51.65"/><polyline class="cls-2" points="832.96 43.57 855.89 43.57 855.89 51.65 846.62 51.65"/></svg>