<svg id="Layer_1" data-name="Layer 1" xmlns="http://www.w3.org/2000/svg" viewBox="0 0 264 82"><defs><style>.cls-1{fill:#2483c5;}</style></defs><rect class="cls-1" x="16.64" y="66.43" width="18.99" height="1.32"/><polygon class="cls-1" points="16.64 64.26 16.64 62.22 35.48 62.22 35.56 64.26 16.64 64.26"/><polygon class="cls-1" points="16.64 60.02 16.64 57.22 35.35 57.22 35.41 60.02 16.64 60.02"/><polygon class="cls-1" points="16.64 55.01 16.64 50.94 35.16 50.94 35.25 55.01 16.64 55.01"/><polygon class="cls-1" points="16.64 48.8 16.64 42.51 70.58 42.51 70.97 48.8 38.33 48.8 34.61 42.51 35.06 48.8 16.64 48.8"/><polygon class="cls-1" points="16.64 40.33 16.64 32.54 48.85 32.54 53.62 40.33 53.17 32.54 70.97 32.54 70.97 40.33 16.64 40.33"/><polygon class="cls-1" points="16.64 30.35 16.64 15.15 38.42 15.21 47.45 30.35 16.64 30.35"/><rect class="cls-1" x="53.17" y="15.15" width="17.8" height="15.2"/><polygon class="cls-1" points="70.97 50.94 70.97 55.01 42.49 55.01 39.79 50.94 70.97 50.94"/><polygon class="cls-1" points="70.97 57.22 70.97 60.02 45.75 60.02 43.9 57.22 70.97 57.22"/><polygon class="cls-1" points="70.97 62.22 70.97 64.27 48.54 64.27 47.2 62.22 70.97 62.22"/><polygon class="cls-1" points="70.97 66.43 70.97 67.75 50.86 67.75 49.98 66.43 70.97 66.43"/><rect class="cls-1" x="76.05" y="66.43" width="18.59" height="1.32"/><rect class="cls-1" x="76.05" y="62.22" width="18.59" height="2.04"/><rect class="cls-1" x="76.05" y="57.22" width="18.59" height="2.81"/><rect class="cls-1" x="76.05" y="50.94" width="18.59" height="4.07"/><rect class="cls-1" x="76.05" y="42.51" width="18.59" height="6.3"/><rect class="cls-1" x="76.05" y="32.54" width="18.59" height="7.79"/><rect class="cls-1" x="76.05" y="15.15" width="18.59" height="15.2"/><path class="cls-1" d="M126.59,14.25h9.86v16.1H100.54a28.68,28.68,0,0,1,26.05-16.1"/><path class="cls-1" d="M120.51,32.54a10.36,10.36,0,0,0-3.71,7.79H98.08a26.76,26.76,0,0,1,1.55-7.79Z"/><path class="cls-1" d="M117,42.51a10.5,10.5,0,0,0,3.7,6.29H99.18a25.09,25.09,0,0,1-1.06-6.29Z"/><path class="cls-1" d="M136.45,50.94V55H102a26.68,26.68,0,0,1-2-4.07Z"/><path class="cls-1" d="M136.45,57.22V60H105.92a27.23,27.23,0,0,1-2.46-2.8Z"/><path class="cls-1" d="M136.45,62.22v2H111.29a33.94,33.94,0,0,1-2.93-2Z"/><path class="cls-1" d="M136.45,66.43v1.13H119.63s-.56.2-3.9-1.13Z"/><polygon class="cls-1" points="146.19 15.33 149.53 15.33 155.59 25.88 155.59 15.33 158.56 15.33 158.56 30.45 155.37 30.45 149.16 19.72 149.16 30.45 146.19 30.45 146.19 15.33"/><path class="cls-1" d="M165.57,23.65a4.79,4.79,0,0,0,1.18-.25.89.89,0,0,0,.64-.84,1,1,0,0,0-.49-.94,3,3,0,0,0-1.43-.27,1.89,1.89,0,0,0-1.5.51,2.15,2.15,0,0,0-.42,1H160.7a4.25,4.25,0,0,1,.83-2.41c.79-1,2.13-1.48,4-1.48a7.29,7.29,0,0,1,3.3.73,2.78,2.78,0,0,1,1.45,2.75v5.13c0,.36,0,.79,0,1.29a1.52,1.52,0,0,0,.18.78A1,1,0,0,0,171,30v.43h-3.21a3.68,3.68,0,0,1-.19-.63c0-.2-.06-.43-.08-.68a6.16,6.16,0,0,1-1.41,1.12,4.34,4.34,0,0,1-2.17.54,3.76,3.76,0,0,1-2.55-.87,3,3,0,0,1-1-2.45,3.19,3.19,0,0,1,1.61-3,7.57,7.57,0,0,1,2.61-.72ZM167.38,25a3.43,3.43,0,0,1-.58.28,4.69,4.69,0,0,1-.79.2l-.67.12A4.29,4.29,0,0,0,164,26a1.33,1.33,0,0,0-.7,1.24,1.27,1.27,0,0,0,.43,1.08,1.56,1.56,0,0,0,1,.34,3.1,3.1,0,0,0,1.78-.56,2.31,2.31,0,0,0,.85-2Z"/><path class="cls-1" d="M171.53,21.45V19.37h1.57V16.25H176v3.12h1.83v2.08H176v5.91c0,.46.06.75.18.86a1.93,1.93,0,0,0,1.07.17h.29l.29,0v2.19l-1.4.05a3.82,3.82,0,0,1-2.86-.72,2.14,2.14,0,0,1-.49-1.55V21.45Z"/><path class="cls-1" d="M182.93,17.94h-3v-2.7h3Zm-3,1.33h3V30.45h-3Z"/><path class="cls-1" d="M194.62,29.09a6.27,6.27,0,0,1-8.67,0,6.47,6.47,0,0,1-1.43-4.21A6.47,6.47,0,0,1,186,20.69a6.17,6.17,0,0,1,8.67,0,6.41,6.41,0,0,1,1.43,4.19,6.41,6.41,0,0,1-1.43,4.21m-2.35-1.62a4.29,4.29,0,0,0,.69-2.59,4.29,4.29,0,0,0-.69-2.59,2.64,2.64,0,0,0-4,0,4.22,4.22,0,0,0-.7,2.59,4.22,4.22,0,0,0,.7,2.59,2.64,2.64,0,0,0,4,0"/><path class="cls-1" d="M207.05,19.91a3.69,3.69,0,0,1,1.11,3v7.53h-3v-6.8a3,3,0,0,0-.24-1.35,1.65,1.65,0,0,0-1.64-.87,2,2,0,0,0-2,1.27,4.33,4.33,0,0,0-.29,1.7v6.05H198V19.29h2.86v1.63a5.17,5.17,0,0,1,1.07-1.24,3.76,3.76,0,0,1,2.3-.68,4.37,4.37,0,0,1,2.85.91"/><path class="cls-1" d="M215.16,23.65a5,5,0,0,0,1.18-.25.89.89,0,0,0,.64-.84,1,1,0,0,0-.49-.94,3,3,0,0,0-1.43-.27,1.89,1.89,0,0,0-1.5.51,2.15,2.15,0,0,0-.42,1h-2.85a4.25,4.25,0,0,1,.83-2.41c.79-1,2.13-1.48,4-1.48a7.29,7.29,0,0,1,3.3.73,2.8,2.8,0,0,1,1.45,2.75v5.13c0,.36,0,.79,0,1.29a1.66,1.66,0,0,0,.17.78,1.1,1.1,0,0,0,.44.34v.43h-3.21a3.68,3.68,0,0,1-.19-.63c0-.2-.06-.43-.08-.68a6.16,6.16,0,0,1-1.41,1.12,4.37,4.37,0,0,1-2.17.54,3.76,3.76,0,0,1-2.55-.87,3,3,0,0,1-1-2.45,3.19,3.19,0,0,1,1.61-3,7.57,7.57,0,0,1,2.61-.72ZM217,25a3.43,3.43,0,0,1-.58.28,4.44,4.44,0,0,1-.79.2l-.67.12a4.46,4.46,0,0,0-1.36.4,1.34,1.34,0,0,0-.69,1.24,1.29,1.29,0,0,0,.42,1.08,1.61,1.61,0,0,0,1,.34,3.1,3.1,0,0,0,1.78-.56,2.34,2.34,0,0,0,.85-2Z"/><rect class="cls-1" x="222.33" y="15.33" width="2.95" height="15.12"/><rect class="cls-1" x="145.98" y="33.07" width="3.17" height="15.12"/><path class="cls-1" d="M160.78,37.65a3.67,3.67,0,0,1,1.11,3v7.53h-3v-6.8a3.1,3.1,0,0,0-.24-1.36,1.67,1.67,0,0,0-1.64-.86,2,2,0,0,0-2.05,1.26,4.42,4.42,0,0,0-.29,1.71v6h-3V37h2.86v1.63a5,5,0,0,1,1.07-1.24,3.76,3.76,0,0,1,2.3-.68,4.33,4.33,0,0,1,2.85.91"/><path class="cls-1" d="M169.09,32.93l.62,0v2.38c-.16,0-.44,0-.83,0a1,1,0,0,0-.81.26,1,1,0,0,0-.22.6v.94h1.94v2.06h-1.94v9h-2.93v-9h-1.66V37.11h1.62v-.72a3.74,3.74,0,0,1,.61-2.47c.43-.67,1.46-1,3.09-1h.51"/><path class="cls-1" d="M180.68,46.82a6.24,6.24,0,0,1-8.67,0,6.88,6.88,0,0,1,0-8.4,6.19,6.19,0,0,1,8.67,0,6.88,6.88,0,0,1,0,8.4m-2.36-1.62a4.2,4.2,0,0,0,.7-2.59,4.17,4.17,0,0,0-.7-2.58,2.33,2.33,0,0,0-2-.91,2.36,2.36,0,0,0-2,.91,4.11,4.11,0,0,0-.7,2.58,4.14,4.14,0,0,0,.7,2.59,2.37,2.37,0,0,0,2,.92,2.34,2.34,0,0,0,2-.92"/><path class="cls-1" d="M190.28,36.74a1.14,1.14,0,0,0,.25,0v3l-.49,0h-.35a2.48,2.48,0,0,0-2.4,1.15,4.59,4.59,0,0,0-.34,2v5.35h-3V37h2.82v2A5.89,5.89,0,0,1,188,37.43a3.25,3.25,0,0,1,2.15-.69h.14"/><path class="cls-1" d="M206.13,37.05a3.41,3.41,0,0,1,1.32,1,3.28,3.28,0,0,1,.64,1.44,9.86,9.86,0,0,1,.1,1.65l0,7h-3V41.07a2.34,2.34,0,0,0-.21-1,1.46,1.46,0,0,0-1.45-.77,1.71,1.71,0,0,0-1.69,1,3.08,3.08,0,0,0-.23,1.28v6.66h-3V41.53a3.76,3.76,0,0,0-.2-1.45,1.45,1.45,0,0,0-1.46-.81,1.75,1.75,0,0,0-1.7.81,3.1,3.1,0,0,0-.24,1.38v6.73h-3V37h2.87v1.63a4.6,4.6,0,0,1,1-1.24,4.14,4.14,0,0,1,4.32-.1,3.33,3.33,0,0,1,1,1.35,3.78,3.78,0,0,1,1.44-1.45,4.55,4.55,0,0,1,2-.46,4,4,0,0,1,1.47.29"/><path class="cls-1" d="M215.16,41.39a4.92,4.92,0,0,0,1.18-.26.87.87,0,0,0,.64-.83,1,1,0,0,0-.49-.95,3.17,3.17,0,0,0-1.43-.26,1.89,1.89,0,0,0-1.5.51,2.15,2.15,0,0,0-.42,1h-2.85a4.25,4.25,0,0,1,.83-2.41c.79-1,2.13-1.48,4-1.48a7.16,7.16,0,0,1,3.3.73,2.79,2.79,0,0,1,1.45,2.75v5.13c0,.35,0,.78,0,1.29a1.73,1.73,0,0,0,.17.78,1.1,1.1,0,0,0,.44.34v.43h-3.21a3.77,3.77,0,0,1-.19-.64c0-.2-.06-.42-.08-.67A6.4,6.4,0,0,1,215.65,48a4.27,4.27,0,0,1-2.17.55,3.76,3.76,0,0,1-2.55-.87,3.06,3.06,0,0,1-1-2.46,3.19,3.19,0,0,1,1.61-3,7.35,7.35,0,0,1,2.61-.72ZM217,42.75a2.81,2.81,0,0,1-.58.28,5.32,5.32,0,0,1-.79.21l-.67.12a4.46,4.46,0,0,0-1.36.4,1.33,1.33,0,0,0-.69,1.24,1.29,1.29,0,0,0,.42,1.08,1.66,1.66,0,0,0,1,.33,3.09,3.09,0,0,0,1.78-.55,2.34,2.34,0,0,0,.85-2Z"/><path class="cls-1" d="M221.11,39.19V37.11h1.58V34h2.92v3.12h1.83v2.08h-1.83V45.1c0,.46,0,.74.17.86a2,2,0,0,0,1.08.17h.58v2.18l-1.4.05a3.82,3.82,0,0,1-2.86-.71,2.15,2.15,0,0,1-.49-1.55V39.19Z"/><path class="cls-1" d="M232.52,35.67h-3V33h3Zm-3,1.34h3V48.19h-3Z"/><path class="cls-1" d="M241.55,41a2.36,2.36,0,0,0-.43-1.13,1.78,1.78,0,0,0-1.54-.68,2,2,0,0,0-2.05,1.47,6.13,6.13,0,0,0-.29,2.06,5.67,5.67,0,0,0,.29,2,2,2,0,0,0,2,1.4,1.76,1.76,0,0,0,1.47-.56,2.7,2.7,0,0,0,.53-1.43h3a4.87,4.87,0,0,1-1,2.52,4.76,4.76,0,0,1-4.12,1.92,4.83,4.83,0,0,1-4-1.6,6.41,6.41,0,0,1-1.29-4.15,6.51,6.51,0,0,1,1.42-4.48,5,5,0,0,1,3.92-1.6,5.85,5.85,0,0,1,3.47.95A4.35,4.35,0,0,1,244.58,41Z"/><path class="cls-1" d="M248.67,44.62a1.92,1.92,0,0,0,.41,1.11,2.75,2.75,0,0,0,2,.58,3.12,3.12,0,0,0,1.38-.25.85.85,0,0,0,.1-1.52,15.92,15.92,0,0,0-3.08-.89,6.34,6.34,0,0,1-2.71-1.17,2.55,2.55,0,0,1-.79-2,3.47,3.47,0,0,1,1.23-2.66,5,5,0,0,1,3.46-1.11,6.48,6.48,0,0,1,3.45.83,3.58,3.58,0,0,1,1.53,2.89h-2.95a1.75,1.75,0,0,0-.32-.89,2,2,0,0,0-1.67-.59,2.38,2.38,0,0,0-1.37.29.86.86,0,0,0-.41.7.76.76,0,0,0,.44.73,18.16,18.16,0,0,0,3.08.81,5.71,5.71,0,0,1,2.64,1.24,2.8,2.8,0,0,1,.87,2.1,3.4,3.4,0,0,1-1.25,2.72,7.58,7.58,0,0,1-7.8-.06,3.61,3.61,0,0,1-1.27-2.84Z"/><path class="cls-1" d="M147.7,53a6.33,6.33,0,0,1,4.69-1.87q3.81,0,5.57,2.51a5.4,5.4,0,0,1,1,2.82h-3.19a4.18,4.18,0,0,0-.78-1.64,3.16,3.16,0,0,0-2.53-1,3.09,3.09,0,0,0-2.68,1.39,6.73,6.73,0,0,0-1,3.94,6,6,0,0,0,1,3.81,3.27,3.27,0,0,0,2.64,1.26,3,3,0,0,0,2.5-1.08,4.83,4.83,0,0,0,.79-1.76H159a6.78,6.78,0,0,1-2.1,4A6.09,6.09,0,0,1,152.56,67a6.53,6.53,0,0,1-5.12-2.09,8.39,8.39,0,0,1-1.86-5.77A8.28,8.28,0,0,1,147.7,53"/><path class="cls-1" d="M168.46,55.62a4.55,4.55,0,0,1,1.95,1.65,5.54,5.54,0,0,1,.9,2.31,13.64,13.64,0,0,1,.09,2.22h-8.21a2.66,2.66,0,0,0,1.17,2.36,3.07,3.07,0,0,0,1.63.42,2.51,2.51,0,0,0,1.64-.51,2.56,2.56,0,0,0,.61-.77h3a3.63,3.63,0,0,1-1.09,2A5.51,5.51,0,0,1,165.91,67a6.24,6.24,0,0,1-4-1.37,5.43,5.43,0,0,1-1.72-4.48,6,6,0,0,1,1.56-4.46,5.46,5.46,0,0,1,4-1.55,6.48,6.48,0,0,1,2.66.53M164,58.14a3,3,0,0,0-.78,1.73h5.08a2.4,2.4,0,0,0-.78-1.76,2.58,2.58,0,0,0-1.75-.61,2.4,2.4,0,0,0-1.77.64"/><path class="cls-1" d="M181.78,56a3.69,3.69,0,0,1,1.11,3v7.53h-3v-6.8a3,3,0,0,0-.24-1.35,1.64,1.64,0,0,0-1.64-.87,2,2,0,0,0-2.05,1.27,4.34,4.34,0,0,0-.28,1.7v6h-3V55.41h2.86V57a5.17,5.17,0,0,1,1.07-1.24,3.78,3.78,0,0,1,2.3-.68,4.35,4.35,0,0,1,2.85.91"/><path class="cls-1" d="M184.26,57.57V55.49h1.58V52.37h2.92v3.12h1.83v2.08h-1.83v5.91a1.38,1.38,0,0,0,.17.86,2,2,0,0,0,1.08.17h.58v2.18l-1.4,0a3.77,3.77,0,0,1-2.85-.71,2.11,2.11,0,0,1-.5-1.55V57.57Z"/><path class="cls-1" d="M198.54,55.13h.26v3c-.19,0-.36,0-.5,0l-.35,0a2.44,2.44,0,0,0-2.39,1.16,4.37,4.37,0,0,0-.35,2v5.34h-3V55.39h2.82v2a5.89,5.89,0,0,1,1.19-1.53,3.25,3.25,0,0,1,2.15-.69h.14"/><path class="cls-1" d="M207.67,55.62a4.61,4.61,0,0,1,2,1.65,5.54,5.54,0,0,1,.9,2.31,13.64,13.64,0,0,1,.09,2.22H202.4a2.66,2.66,0,0,0,1.17,2.36,3,3,0,0,0,1.63.42,2.53,2.53,0,0,0,1.64-.51,2.56,2.56,0,0,0,.61-.77h3a3.63,3.63,0,0,1-1.09,2A5.51,5.51,0,0,1,205.12,67a6.2,6.2,0,0,1-4-1.37,5.4,5.4,0,0,1-1.73-4.48A6,6,0,0,1,201,56.64a5.46,5.46,0,0,1,4-1.55,6.51,6.51,0,0,1,2.66.53m-4.42,2.52a3.09,3.09,0,0,0-.78,1.73h5.08a2.41,2.41,0,0,0-.79-1.76A2.56,2.56,0,0,0,205,57.5a2.39,2.39,0,0,0-1.76.64"/></svg>